<?xml version="1.0" encoding="UTF-8" standalone="no"?>
<!-- Created with Inkscape (http://www.inkscape.org/) -->

<svg
   xmlns:dc="http://purl.org/dc/elements/1.1/"
   xmlns:cc="http://creativecommons.org/ns#"
   xmlns:rdf="http://www.w3.org/1999/02/22-rdf-syntax-ns#"
   xmlns:svg="http://www.w3.org/2000/svg"
   xmlns="http://www.w3.org/2000/svg"
   xmlns:sodipodi="http://sodipodi.sourceforge.net/DTD/sodipodi-0.dtd"
   xmlns:inkscape="http://www.inkscape.org/namespaces/inkscape"
   width="210mm"
   height="297mm"
   viewBox="0 0 210 297"
   version="1.1"
   id="svg3727"
   sodipodi:docname="Foot.svg"
   inkscape:version="0.92.2 2405546, 2018-03-11">
  <defs
     id="defs3721" />
  <sodipodi:namedview
     id="base"
     pagecolor="#ffffff"
     bordercolor="#666666"
     borderopacity="1.0"
     inkscape:pageopacity="0.0"
     inkscape:pageshadow="2"
     inkscape:zoom="0.5"
     inkscape:cx="-280.65694"
     inkscape:cy="577.3742"
     inkscape:document-units="mm"
     inkscape:current-layer="layer1"
     showgrid="false"
     inkscape:window-width="1920"
     inkscape:window-height="1025"
     inkscape:window-x="0"
     inkscape:window-y="0"
     inkscape:window-maximized="1"
     inkscape:pagecheckerboard="true" />
  <metadata
     id="metadata3724">
    <rdf:RDF>
      <cc:Work
         rdf:about="">
        <dc:format>image/svg+xml</dc:format>
        <dc:type
           rdf:resource="http://purl.org/dc/dcmitype/StillImage" />
        <dc:title></dc:title>
      </cc:Work>
    </rdf:RDF>
  </metadata>
  <g
     inkscape:label="Calque 1"
     inkscape:groupmode="layer"
     id="layer1">
    <rect
       style="fill:#ffffff;stroke-width:7.62256193;stroke-miterlimit:4;stroke-dasharray:none;paint-order:stroke markers fill"
       id="rect3750"
       width="34.773811"
       height="89.164574"
       x="60.476192"
       y="152.65089" />
    <path
       style="fill:#ffffff;stroke-width:8.40111446;stroke-miterlimit:4;stroke-dasharray:none;paint-order:markers fill stroke"
       id="path4600"
       sodipodi:type="arc"
       sodipodi:cx="77.864998"
       sodipodi:cy="152.65199"
       sodipodi:rx="17.385006"
       sodipodi:ry="18.974403"
       sodipodi:start="0"
       sodipodi:end="6.2831272"
       d="M 95.250004,152.65199 A 17.385006,18.974403 0 0 1 77.86525,171.6264 17.385006,18.974403 0 0 1 60.479992,152.65254 17.385006,18.974403 0 0 1 77.86424,133.67759 a 17.385006,18.974403 0 0 1 17.385764,18.9733 l -17.385006,0.001 z" />
    <rect
       style="fill:#ffffff;stroke-width:5.4456563;stroke-miterlimit:4;stroke-dasharray:none;paint-order:stroke markers fill"
       id="rect3750-6"
       width="34.773811"
       height="45.508327"
       x="-259.44711"
       y="77.601685"
       transform="rotate(-90)" />
    <path
       style="fill:#ffffff;stroke-width:8.40111446;stroke-miterlimit:4;stroke-dasharray:none;paint-order:markers fill stroke"
       id="path4600-7"
       sodipodi:type="arc"
       sodipodi:cx="242.0621"
       sodipodi:cy="-123.10891"
       sodipodi:rx="17.385006"
       sodipodi:ry="18.974403"
       sodipodi:start="0"
       sodipodi:end="6.2831272"
       d="m 259.44711,-123.10891 a 17.385006,18.974403 0 0 1 -17.38475,18.9744 17.385006,18.974403 0 0 1 -17.38526,-18.97385 17.385006,18.974403 0 0 1 17.38425,-18.97495 17.385006,18.974403 0 0 1 17.38576,18.9733 l -17.38501,0.001 z"
       transform="rotate(90)" />
    <path
       style="fill:#ffffff;stroke-width:7.95545864;stroke-miterlimit:4;stroke-dasharray:none;paint-order:markers fill stroke"
       id="path4600-7-5"
       sodipodi:type="arc"
       sodipodi:cx="242.25058"
       sodipodi:cy="-77.600685"
       sodipodi:rx="17.196541"
       sodipodi:ry="17.201191"
       sodipodi:start="0"
       sodipodi:end="6.2831272"
       d="m 259.44712,-77.600685 a 17.196541,17.201191 0 0 1 -17.19629,17.201191 17.196541,17.201191 0 0 1 -17.19679,-17.200691 17.196541,17.201191 0 0 1 17.19579,-17.201691 17.196541,17.201191 0 0 1 17.19729,17.200191 l -17.19654,0.001 z"
       transform="rotate(90)" />
  </g>
</svg>
